<svg xmlns="http://www.w3.org/2000/svg" viewBox="24 20 253 181" width="225" height="200">
  <defs>
    <clipPath id="clip-1">
      <rect x="0" y="0" transform="scale(0.14648,0.14648)" width="2048" height="2048" fill="none"/>
    </clipPath>
    <linearGradient x1="149.3335" y1="112.74434" x2="151.35352" y2="53.92251" gradientUnits="userSpaceOnUse" id="color-1">
      <stop offset="0" stop-color="#dd5e02"/>
      <stop offset="1" stop-color="#f8b405"/>
    </linearGradient>
  </defs>
  <g clip-path="url(#clip-1)" fill="none" fill-rule="nonzero" stroke="none" stroke-width="1" stroke-linecap="butt" stroke-linejoin="miter" stroke-miterlimit="10" stroke-dasharray="" stroke-dashoffset="0" font-family="none" font-weight="none" font-size="none" text-anchor="none" style="mix-blend-mode: normal">
    <path d="M92.31577,116.15024c3.44414,1.9396 6.75952,3.89487 10.36919,5.55352c11.3228,5.20283 25.05454,7.19839 36.73682,1.97695c3.86631,-1.72793 8.03818,-4.66069 10.52988,-8.129c3.66357,4.89448 9.48926,8.14248 15.2959,9.7645c10.29932,2.87651 21.6167,1.04443 31.26416,-3.24082c3.75586,-1.66816 7.53809,-3.85298 11.12549,-5.88413c-0.9668,1.20059 -2.02588,2.69912 -2.93262,3.95303c-4.99072,8.6124 -9.43799,16.41621 -17.11377,22.98193c-3.65771,3.12935 -8.0332,6.02563 -12.22705,8.28149c-8.82129,4.7417 -17.78467,8.98242 -22.74902,18.29297c-1.11328,2.0874 -2.21631,4.7915 -2.61035,7.15723c-0.6416,-2.15771 -1.22168,-3.99023 -2.17529,-6.05127c-5.65898,-12.22705 -18.8603,-16.26123 -29.41157,-23.08887c-10.6875,-6.91567 -16.53911,-15.59312 -22.57866,-26.55278c-0.85078,-0.86279 -2.46885,-3.73506 -3.5231,-5.01475z" fill="#782700"/>
    <path d="M92.31577,116.15024c3.44414,1.9396 6.75952,3.89487 10.36919,5.55352c11.3228,5.20283 25.05454,7.19839 36.73682,1.97695c3.86631,-1.72793 8.03818,-4.66069 10.52988,-8.129c3.66357,4.89448 9.48926,8.14248 15.2959,9.7645c10.29932,2.87651 21.6167,1.04443 31.26416,-3.24082c3.75586,-1.66816 7.53809,-3.85298 11.12549,-5.88413c-0.9668,1.20059 -2.02588,2.69912 -2.93262,3.95303c-0.37793,-0.08979 -0.59326,0.01816 -0.95508,0.28052c-3.35303,2.43193 -6.46436,4.90605 -9.93018,7.18945c-12.49072,8.22773 -24.7998,11.13325 -39.56689,11.42212c-0.44385,-3.26616 -2.32471,-5.31401 -4.31689,-7.81538c-2.3877,2.73354 -3.65684,4.24863 -4.4165,7.78638c-2.32222,-0.19233 -4.77437,-0.18208 -7.20469,-0.39463c-8.86553,-0.7752 -17.12227,-2.83242 -25.13511,-6.73989c-5.84663,-2.85103 -10.91074,-6.69155 -16.25303,-10.33696c-0.38848,-0.26514 -0.62168,-0.41719 -1.08735,-0.3709c-0.85078,-0.86279 -2.46885,-3.73506 -3.5231,-5.01475z" fill="#af4606"/>
    <path d="M149.93555,131.221c1.99219,2.50137 3.87305,4.54922 4.31689,7.81538c0,5.38462 -1.2832,7.2564 -4.32861,11.65503c-2.97217,-3.87744 -4.72266,-6.69507 -4.40479,-11.68403c0.75967,-3.53774 2.02881,-5.05283 4.4165,-7.78638z" fill="#e0cbab"/>
    <path d="M161.26611,142.85728c3.0293,0.0104 3.51855,2.44072 1.875,4.60269c-1.51025,1.98633 -3.75293,2.96045 -5.67187,4.49414c-1.43701,1.1499 -2.55908,2.15479 -3.69873,3.59619c-0.42627,0.53906 -0.88623,1.29932 -1.26855,1.88965c0.50684,-5.32031 2.62061,-13.37402 8.76416,-14.58267z" fill="#e0cbab"/>
    <path d="M137.92017,142.83354c6.39419,-0.00205 9.03149,9.36372 9.36401,14.44087l-0.77344,-1.12061c-1.14243,-1.57764 -2.2314,-2.79932 -3.75146,-4.05762c-2.32705,-1.92627 -5.61914,-3.14648 -6.81709,-6.12319c-0.67632,-1.68062 0.44678,-2.67114 1.97798,-3.13945z" fill="#e0cbab"/>
    <path d="M149.77295,156.93896c0.86572,-0.07324 1.63916,0.54346 1.75928,1.40479c0.12158,0.85986 -0.45264,1.66553 -1.30664,1.83252c-0.59473,0.11572 -1.2041,-0.10547 -1.58643,-0.57568c-0.38086,-0.47168 -0.47021,-1.11475 -0.23291,-1.67139c0.2373,-0.55811 0.76318,-0.93896 1.3667,-0.99023z" fill="#e0cbab"/>
    <path d="M149.34814,151.67285c0.42627,-0.21533 0.93604,-0.18164 1.33008,0.08936c0.39258,0.271 0.60645,0.73389 0.55811,1.2085c-0.04834,0.47607 -0.35303,0.88623 -0.79248,1.0708c-0.64893,0.27393 -1.396,-0.01611 -1.69189,-0.65479c-0.2959,-0.63867 -0.03076,-1.39746 0.59619,-1.71387z" fill="#e0cbab"/>
    <path d="M54.42788,152.11523c3.39697,-0.21826 8.05767,-0.03516 11.50122,0.04102c16.22769,0.37207 32.08447,3.74268 47.39663,9.08496c10.09263,3.52148 21.40195,7.6626 29.17456,15.34277c2.1772,2.15039 3.55576,5.28223 7.09541,5.5415c3.68701,0.26953 5.33789,-2.7832 7.46045,-5.146c6.37207,-6.77344 15.43945,-10.28467 23.93262,-13.5835c15.30469,-5.70557 31.62744,-9.84814 47.93555,-10.99512c11.72168,-0.82471 23.64844,-0.23437 35.31299,0.854c3.63428,3.73242 6.93457,7.86035 10.21875,11.90771c-8.61475,-0.854 -16.39746,-1.87793 -25.17627,-2.31445c-2.61182,-0.24023 -6.60498,-0.375 -9.32812,-0.43066c-22.48682,-0.46143 -49.78125,1.20117 -69.84375,12.21094c-2.15771,1.18359 -5.58984,3.65625 -7.22021,5.42139c-3.56836,3.86279 -5.71289,8.0332 -11.61475,8.53125c-9.12964,0.76904 -10.73218,-5.9707 -16.59609,-10.66699c-5.07554,-4.06494 -12.60996,-7.54248 -18.80054,-9.41309c-25.12822,-7.59521 -52.16602,-6.97412 -78.04614,-4.63477c-4.10347,0.37061 -8.05312,0.89063 -12.09961,1.28613c3.45308,-4.32861 6.28711,-7.97461 10.21758,-11.90479c6.39565,-0.40283 11.91709,-0.91992 18.47974,-1.13232z" fill="#4f2c0e"/>
    <path d="M148.5498,40.26592c2.38184,3.29839 4.54395,6.58579 6.57568,10.11489c0.76758,1.33418 1.94678,3.22646 2.58838,4.6314c0.22412,0.38101 0.44092,0.76743 0.64746,1.15884c8.75098,16.57734 17.10938,43.91821 -3.68994,56.02222c-0.63867,0.37236 -1.32568,0.7144 -1.98193,1.06172c5.60303,-6.08774 6.87598,-14.6376 5.28223,-22.52256c-1.38135,-6.83613 -4.20117,-12.53994 -7.96875,-18.31802c-0.0249,2.4208 -0.28271,4.92598 -1.00049,7.2353c-1.89404,6.09141 -5.92412,11.26143 -6.56587,17.75933c-0.61289,6.20581 1.16851,11.03276 5.03071,15.7853c-5.5459,-2.54062 -9.95259,-7.04663 -12.36914,-12.64731c-7.60049,-17.27637 4.85728,-32.05181 10.88203,-47.37085c1.47832,-4.52754 2.52861,-8.01416 2.56963,-12.91025z" fill="url(#color-1)"/>
    <path d="M148.5498,40.26592c2.38184,3.29839 4.54395,6.58579 6.57568,10.11489c0.76758,1.33418 1.94678,3.22646 2.58838,4.6314l-0.01611,0.46318c-0.27686,-0.00029 -0.12891,0.02725 -0.38232,-0.06284c-2.31299,-0.77153 -5.2251,-1.45679 -7.64648,-1.57705c-0.56689,-0.02813 -3.05127,0.56309 -3.80464,0.66738c0.11016,-0.54507 0.16055,-0.77739 0.11587,-1.32671c1.47832,-4.52754 2.52861,-8.01416 2.56963,-12.91025z" fill="#fab605"/>
    <path d="M235.61279,115.16338c0.35889,-0.03516 0.94189,-0.09316 1.24951,0.08599c3.2168,1.87002 7.41357,10.07241 8.80225,13.24204c-16.19092,3.9624 -34.00195,13.07388 -49.08838,20.31768c-12.49658,6 -28.45605,13.32861 -38.55908,22.70654c-1.96729,1.96875 -3.21826,3.66357 -4.91455,5.79785c0.79102,-2.08301 1.5498,-4.03857 2.70264,-5.95459c4.9585,-8.24414 14.11816,-12.84961 22.12646,-17.53711c3.18311,-1.85303 6.28271,-3.85107 9.28418,-5.98682c15.65186,-11.33423 28.72266,-27.71777 48.39697,-32.67158z" fill="#e0cbab"/>
    <path d="M63.14194,115.12808c1.92979,-0.27729 6.95332,1.69058 8.93218,2.56304c15.97485,7.04194 27.61567,20.62632 41.54033,30.67119c8.18027,5.90039 17.92031,9.89063 25.40625,16.68896c4.14448,3.76318 5.97847,7.43848 7.98076,12.45703c-1.54043,-2.03027 -2.24912,-3.1377 -4.07783,-5.07568c-2.79272,-2.8374 -5.88647,-5.36279 -9.22661,-7.5293c-7.68252,-5.08008 -19.98296,-11.20752 -28.43569,-15.3457c-15.17681,-7.42778 -34.36934,-17.21587 -50.70659,-21.05801c1.56357,-3.88022 5.45757,-10.71064 8.58721,-13.37153z" fill="#e0cbab"/>
    <path d="M249.44971,134.38506c0.96826,-0.14341 1.42383,0.03809 2.16211,0.65903c3.60205,3.03237 6.65918,7.29053 9.40576,11.03979c-22.78711,-0.04805 -47.74072,4.42881 -69.44092,11.25791c-5.22656,1.64502 -10.56445,3.44971 -15.6123,5.6001c-1.37549,0.54932 -2.70264,1.08398 -4.05762,1.68018c-1.17334,0.51563 -2.63086,1.33594 -3.80566,1.7373c0.47021,-0.53027 4.65381,-2.7876 5.5459,-3.28418c8.70996,-4.8457 17.74512,-9.05566 26.84619,-13.11035c8.78906,-3.91626 17.98389,-7.87397 27.15381,-10.79736c7.09131,-2.31182 14.39502,-3.91377 21.80273,-4.78242z" fill="#a1805f"/>
    <path d="M49.60957,134.3061c2.53638,0.07017 6.0082,0.72891 8.52026,1.18535c14.44336,2.62427 27.47769,8.04331 40.79487,14.0105c10.69336,4.69336 21.12729,9.95654 31.25684,15.76758l-0.30278,0.16406c-0.7563,-0.46143 -2.87725,-1.35791 -3.75674,-1.73584c-2.89028,-1.25098 -5.81895,-2.4126 -8.78174,-3.48193c-25.04648,-9.10986 -51.46143,-13.8895 -78.11221,-14.13237c2.96484,-4.32568 6.17593,-8.58472 10.38149,-11.77734z" fill="#a1805f"/>
    <path d="M207.01025,107.57798c4.78564,-0.32417 7.4165,0.76143 10.94678,3.78794c-7.2334,-0.27422 -9.28271,1.94502 -15.71484,5.03057c-12.36621,5.93218 -24.38232,8.34683 -37.80762,4.3396c-4.06494,-1.36099 -7.23633,-3.14663 -10.54687,-5.84575c10.875,5.18247 24.06738,2.89922 34.771,-1.48989c6.0293,-2.4731 11.83301,-5.16475 18.35156,-5.82246z" fill="#bf5701"/>
    <path d="M90.62256,107.5771c5.34668,-0.86631 15.38979,3.63765 20.55176,5.71406c11.81089,4.75107 22.45649,6.60483 34.70288,1.7792c-2.3168,2.07275 -5.27651,3.64204 -8.08828,4.92202c-12.05391,4.98809 -26.53828,2.59277 -38.06909,-2.73604c-6.26162,-2.8938 -10.62554,-6.62812 -17.73574,-5.79141c2.88911,-2.66426 4.74771,-3.4623 8.63848,-3.88784z" fill="#bf5701"/>
  </g>
</svg>